<?xml version="1.0" encoding="utf-8"?>
<!-- Generator: Adobe Illustrator 16.0.0, SVG Export Plug-In . SVG Version: 6.00 Build 0)  -->
<!DOCTYPE svg PUBLIC "-//W3C//DTD SVG 1.1//EN" "http://www.w3.org/Graphics/SVG/1.1/DTD/svg11.dtd">
<svg version="1.1" id="Capa_1" xmlns="http://www.w3.org/2000/svg" xmlns:xlink="http://www.w3.org/1999/xlink" x="0px" y="0px"
	 width="140.667px" height="129.667px" viewBox="0 0 140.667 129.667" enable-background="new 0 0 140.667 129.667"
	 xml:space="preserve">
<g>
	<path fill-rule="evenodd" clip-rule="evenodd" fill="#01B3FE" d="M108.049,63.247c-2.633-2.667-5.547-4.983-8.718-6.979
		c-2.71-1.837-5.61-3.324-8.61-4.621c-2.221-0.961-4.459-1.89-6.827-2.451c-2.685-0.924-5.473-1.422-8.254-1.95
		c3.386-3.476,6.761-6.96,9.786-10.766c2.605-3.277,4.964-6.707,6.526-10.619c1.046-2.615,1.664-5.31,1.093-8.147
		c-0.549-2.739-2.254-4.411-4.937-4.73c-1.601-0.191-3.099,0.299-4.496,1.061c-2.458,1.34-4.266,3.373-5.836,5.631
		c-3.091,4.444-4.973,9.452-6.698,14.528c-1.375,4.05-2.442,8.191-3.56,12.316c-0.149-0.004-0.298-0.008-0.444-0.013
		c-0.099-0.491-0.033-0.98,0.028-1.467c0.386-3.083,0.64-6.178,0.811-9.278c0.202-3.657,0.287-7.314,0.022-10.978
		c-0.268-3.69-0.831-7.311-2.291-10.732c-1.052-2.466-2.457-4.677-5.005-5.895c-2.325-1.111-4.367-0.757-6.2,1.028
		c-1.224,1.192-1.975,2.647-2.389,4.271c-1.008,3.952-0.608,7.893,0.259,11.799c1.31,5.898,3.56,11.474,5.96,16.995
		c0.655,1.506,1.447,2.952,1.965,4.517h0.023c-1.003,0.114-2.008,0.21-3.008,0.344c-2.254,0.302-4.518,0.545-6.738,1.064
		c-1.496,0.152-2.951,0.519-4.409,0.857c-3.368,0.784-6.709,1.663-9.931,2.942c-4.781,1.667-9.284,3.89-13.431,6.802
		c-5.529,3.883-9.911,8.729-12.478,15.071c-2.41,5.954-2.724,12.104-1.693,18.371c1.158,7.034,4.383,12.972,9.669,17.74
		c7.014,6.325,15.513,9.375,24.651,10.959c1.294,0.342,2.625,0.461,3.948,0.61c3.607,0.411,7.224,0.698,10.861,0.588
		c3.281,0.011,6.548-0.227,9.813-0.522c2.047-0.121,4.073-0.425,6.077-0.841c2.82-0.585,5.63-1.234,8.318-2.305
		c2.889-0.963,5.679-2.152,8.378-3.565c1.932-0.866,3.723-1.981,5.489-3.135c2.961-1.935,5.784-4.046,8.285-6.563
		c2.751-2.508,5.127-5.336,7.213-8.414c2.6-3.831,4.551-7.939,5.346-12.539c0.077-0.456,0.262-0.688,0.707-0.854
		c3.469-1.298,6.929-2.625,10.393-3.946c1.57-0.6,3.135-1.207,4.935-1.9c-0.574-0.126-0.88-0.207-1.192-0.261
		c-4.948-0.846-9.896-1.698-14.847-2.521c-0.579-0.096-0.883-0.329-1.115-0.883C113.778,69.799,111.2,66.319,108.049,63.247z"/>
	<path fill-rule="evenodd" clip-rule="evenodd" fill="#FDDC3A" d="M42.891,120.92c-9.138-1.584-17.637-4.634-24.651-10.959
		c-5.286-4.769-8.511-10.707-9.669-17.74C7.54,85.954,7.854,79.804,10.264,73.85c2.567-6.341,6.949-11.188,12.478-15.071
		c4.146-2.912,8.649-5.135,13.431-6.802c0.245,2.486,0.49,4.972,0.735,7.458c0.501,5.087,1.009,10.173,1.503,15.26
		c0.494,5.087,0.969,10.178,1.462,15.265c0.495,5.087,1.008,10.173,1.504,15.26C41.888,110.452,42.387,115.685,42.891,120.92z
		 M17.299,79.162c-0.002,2.182,1.681,3.903,3.823,3.911c2.201,0.007,3.904-1.645,3.924-3.806c0.021-2.219-1.694-3.979-3.863-3.964
		C19.004,75.317,17.301,77.01,17.299,79.162z"/>
	<path fill-rule="evenodd" clip-rule="evenodd" fill="#010100" d="M81.907,118.45c-2.688,1.071-5.498,1.719-8.318,2.305
		c-2.003,0.417-4.029,0.72-6.077,0.841c-0.295-3.063-0.588-6.126-0.886-9.189c-0.439-4.54-0.886-9.077-1.327-13.613
		c-0.432-4.452-0.86-8.903-1.293-13.354c-0.439-4.509-0.882-9.017-1.323-13.525c-0.443-4.537-0.889-9.075-1.327-13.612
		c-0.371-3.843-0.733-7.688-1.099-11.533h-0.023c2.279-0.087,4.558-0.174,6.838-0.261c0.146,0.005,0.295,0.009,0.444,0.014
		c1.303,0.081,2.608,0.12,3.905,0.254c1.198,0.124,2.423,0.098,3.577,0.534c0.138,1.417,0.282,2.833,0.417,4.25
		c0.488,5.09,0.966,10.182,1.459,15.271c0.552,5.668,1.126,11.333,1.675,17.002c0.555,5.696,1.084,11.396,1.637,17.092
		C80.753,106.768,81.333,112.607,81.907,118.45z"/>
	<path fill-rule="evenodd" clip-rule="evenodd" fill="#010100" d="M42.891,120.92c-0.504-5.235-1.002-10.468-1.513-15.7
		c-0.496-5.087-1.009-10.173-1.504-15.26c-0.494-5.087-0.969-10.178-1.462-15.265c-0.494-5.087-1.002-10.173-1.503-15.26
		c-0.246-2.486-0.491-4.972-0.735-7.458c3.221-1.279,6.563-2.158,9.931-2.942c1.458-0.338,2.914-0.705,4.409-0.857
		c0.505,5.114,1.017,10.226,1.512,15.34c0.607,6.271,1.192,12.542,1.802,18.813c0.668,6.877,1.361,13.751,2.031,20.628
		c0.623,6.387,1.228,12.773,1.842,19.159c-3.637,0.11-7.253-0.177-10.861-0.588C45.516,121.381,44.185,121.262,42.891,120.92z"/>
	<path fill-rule="evenodd" clip-rule="evenodd" fill="#010100" d="M104.059,105.187c-2.5,2.517-5.324,4.628-8.285,6.563
		c-1.766,1.153-3.557,2.269-5.489,3.135c-0.176-1.703-0.364-3.405-0.527-5.108c-0.607-6.299-1.198-12.599-1.808-18.896
		c-0.67-6.875-1.363-13.748-2.034-20.623c-0.682-7.02-1.347-14.041-2.023-21.062c2.368,0.561,4.606,1.489,6.827,2.451
		c3,1.297,5.9,2.784,8.61,4.621c0.022,0.493,0.025,0.987,0.072,1.478c0.326,3.383,0.657,6.765,0.985,10.148
		c0.43,4.424,0.861,8.848,1.292,13.271c0.438,4.51,0.877,9.021,1.322,13.53C103.349,98.192,103.708,101.688,104.059,105.187z"/>
	<path fill-rule="evenodd" clip-rule="evenodd" fill="#FDDB3A" d="M57.7,122.118c-0.614-6.386-1.219-12.772-1.842-19.159
		c-0.67-6.876-1.362-13.75-2.031-20.628c-0.61-6.27-1.195-12.542-1.802-18.813c-0.495-5.114-1.007-10.227-1.512-15.34
		c2.22-0.52,4.484-0.762,6.738-1.064c1-0.134,2.005-0.229,3.008-0.344c0.366,3.844,0.728,7.689,1.099,11.533
		c0.438,4.538,0.884,9.075,1.327,13.612c0.44,4.508,0.884,9.016,1.323,13.525c0.433,4.451,0.861,8.902,1.293,13.354
		c0.44,4.537,0.888,9.074,1.327,13.613c0.298,3.063,0.59,6.126,0.886,9.189C64.248,121.891,60.98,122.128,57.7,122.118z"/>
	<path fill-rule="evenodd" clip-rule="evenodd" fill="#FDDB3A" d="M83.894,49.196c0.676,7.021,1.341,14.042,2.023,21.062
		c0.67,6.875,1.363,13.748,2.034,20.623c0.61,6.297,1.201,12.597,1.808,18.896c0.163,1.703,0.351,3.405,0.527,5.108
		c-2.699,1.413-5.489,2.603-8.378,3.565c-0.574-5.842-1.154-11.682-1.719-17.524c-0.552-5.696-1.082-11.396-1.637-17.092
		c-0.549-5.668-1.123-11.334-1.675-17.002c-0.494-5.089-0.971-10.181-1.459-15.271c-0.135-1.417-0.279-2.833-0.417-4.25
		c0.212-0.021,0.428-0.042,0.64-0.063C78.421,47.774,81.208,48.272,83.894,49.196z"/>
	<path fill-rule="evenodd" clip-rule="evenodd" fill="#FDFEFE" d="M67.073,46.508c-2.28,0.087-4.56,0.174-6.838,0.261
		c-0.518-1.564-1.311-3.011-1.965-4.517c-2.401-5.521-4.65-11.096-5.96-16.995c-0.867-3.906-1.267-7.847-0.259-11.799
		c0.414-1.625,1.165-3.08,2.389-4.271c1.833-1.786,3.875-2.139,6.2-1.028c2.548,1.217,3.953,3.428,5.005,5.895
		c1.459,3.421,2.022,7.042,2.291,10.732c0.265,3.664,0.179,7.321-0.022,10.978c-0.171,3.1-0.425,6.195-0.811,9.278
		C67.04,45.528,66.974,46.017,67.073,46.508z"/>
	<path fill-rule="evenodd" clip-rule="evenodd" fill="#FDFEFE" d="M75.639,47.247c-0.212,0.021-0.428,0.042-0.64,0.063
		c-1.153-0.436-2.379-0.411-3.577-0.534c-1.297-0.134-2.602-0.173-3.905-0.254c1.118-4.125,2.186-8.267,3.56-12.317
		c1.725-5.077,3.607-10.084,6.698-14.528c1.57-2.258,3.378-4.291,5.836-5.631c1.396-0.762,2.895-1.252,4.496-1.061
		c2.683,0.319,4.388,1.991,4.937,4.73c0.571,2.837-0.047,5.532-1.093,8.147c-1.562,3.912-3.921,7.342-6.526,10.619
		C82.4,40.287,79.025,43.771,75.639,47.247z"/>
	<path fill-rule="evenodd" clip-rule="evenodd" fill="#FDDB3A" d="M104.059,105.187c-0.351-3.499-0.709-6.995-1.057-10.492
		c-0.444-4.509-0.883-9.02-1.322-13.53c-0.431-4.423-0.861-8.847-1.292-13.271c-0.329-3.383-0.66-6.765-0.985-10.148
		c-0.047-0.491-0.05-0.985-0.072-1.478c3.171,1.996,6.085,4.313,8.718,6.979c0.102,3.018,0.524,6.008,0.797,9.012
		c0.411,4.508,0.867,9.013,1.311,13.519c0.364,3.667,0.742,7.331,1.115,10.996C109.186,99.851,106.81,102.679,104.059,105.187z"/>
	<path fill-rule="evenodd" clip-rule="evenodd" fill="#020201" d="M111.272,96.773c-0.373-3.665-0.75-7.33-1.115-10.996
		c-0.444-4.506-0.9-9.01-1.311-13.519c-0.273-3.003-0.695-5.994-0.797-9.012c3.151,3.072,5.729,6.552,7.448,10.623
		c0.232,0.554,0.536,0.787,1.115,0.883c4.951,0.823,9.899,1.675,14.847,2.521c0.312,0.054,0.618,0.135,1.192,0.261
		c-1.799,0.693-3.364,1.3-4.935,1.9c-3.463,1.322-6.924,2.648-10.393,3.946c-0.444,0.166-0.629,0.398-0.707,0.854
		C115.823,88.834,113.872,92.942,111.272,96.773z M116.938,78.934c-0.027-0.012-0.058-0.024-0.085-0.038c0,1.255,0,2.509,0,3.764
		c0.028-0.001,0.058-0.001,0.085-0.002C116.938,81.417,116.938,80.175,116.938,78.934z"/>
	<path fill-rule="evenodd" clip-rule="evenodd" fill="#010100" d="M17.299,79.162c0.002-2.152,1.706-3.845,3.884-3.859
		c2.169-0.015,3.883,1.746,3.863,3.964c-0.02,2.161-1.723,3.813-3.924,3.806C18.98,83.065,17.297,81.344,17.299,79.162z"/>
	<path fill-rule="evenodd" clip-rule="evenodd" fill="#020202" d="M116.938,78.934c0,1.241,0,2.483,0,3.724
		c-0.027,0.001-0.058,0.001-0.085,0.002c0-1.255,0-2.509,0-3.764C116.88,78.91,116.91,78.922,116.938,78.934z"/>
</g>
</svg>
