<?xml version="1.0" encoding="utf-8"?>
<!-- Generator: Adobe Illustrator 16.0.0, SVG Export Plug-In . SVG Version: 6.00 Build 0)  -->
<!DOCTYPE svg PUBLIC "-//W3C//DTD SVG 1.1//EN" "http://www.w3.org/Graphics/SVG/1.1/DTD/svg11.dtd">
<svg version="1.1" id="Layer_1" xmlns="http://www.w3.org/2000/svg" xmlns:xlink="http://www.w3.org/1999/xlink" x="0px" y="0px"
	 width="100px" height="100px" viewBox="0 0 100 100" enable-background="new 0 0 100 100" xml:space="preserve">
<g>
	<path fill-rule="evenodd" clip-rule="evenodd" fill="#FDDB4C" d="M30.13,90.69c-7.524-1.323-14.427-3.929-19.685-9.785
		c-3.102-3.456-4.817-7.555-5.38-12.164c-0.578-4.728-0.084-9.285,2.024-13.604c1.388-2.843,3.319-5.269,5.683-7.355
		c3.669-3.237,7.905-5.48,12.494-7.102c0.033,0.272,0.071,0.544,0.097,0.816c0.48,4.992,0.954,9.983,1.439,14.974
		c0.569,5.85,1.152,11.698,1.721,17.549C29.063,79.576,29.595,85.134,30.13,90.69z M11.567,60.423
		c0.01,1.581,1.24,2.821,2.798,2.818c1.586-0.002,2.83-1.225,2.828-2.783c0-1.579-1.23-2.854-2.764-2.864
		C12.831,57.584,11.557,58.843,11.567,60.423z"/>
	<path fill-rule="evenodd" clip-rule="evenodd" fill="#010100" d="M58.434,88.896c-1.633,0.668-3.342,1.075-5.056,1.465
		c-1.776,0.403-3.568,0.705-5.391,0.818c-0.4-4.113-0.803-8.226-1.2-12.34c-0.362-3.735-0.714-7.472-1.077-11.207
		c-0.403-4.154-0.81-8.31-1.215-12.465c-0.365-3.735-0.737-7.47-1.097-11.206c-0.227-2.35-0.437-4.701-0.654-7.052l-0.027-0.004
		c1.634-0.06,3.266-0.121,4.899-0.181c0.125,0,0.251-0.002,0.377-0.003c0.967,0.062,1.938,0.088,2.898,0.194
		c0.848,0.093,1.72,0.059,2.534,0.385c0.242,2.539,0.479,5.077,0.727,7.615c0.486,4.97,0.981,9.939,1.464,14.911
		c0.445,4.571,0.874,9.146,1.317,13.718C57.43,78.662,57.934,83.778,58.434,88.896z"/>
	<path fill-rule="evenodd" clip-rule="evenodd" fill="#010100" d="M30.13,90.69c-0.535-5.557-1.066-11.114-1.607-16.672
		c-0.569-5.851-1.152-11.699-1.721-17.549c-0.485-4.991-0.958-9.982-1.439-14.974c-0.025-0.272-0.064-0.543-0.097-0.816
		c2.708-1.05,5.511-1.77,8.344-2.38c0.675-0.146,1.36-0.251,2.042-0.375c0.175,1.761,0.352,3.523,0.525,5.286
		c0.489,4.972,0.981,9.945,1.464,14.917c0.485,4.994,0.956,9.99,1.438,14.985c0.594,6.148,1.193,12.297,1.79,18.445
		c-2.975,0.077-5.93-0.172-8.875-0.554C31.368,90.925,30.75,90.798,30.13,90.69z"/>
	<path fill-rule="evenodd" clip-rule="evenodd" fill="#010100" d="M59.897,38.666c2.509,0.661,4.875,1.687,7.191,2.835
		c1.373,0.681,2.722,1.414,3.984,2.292c0.085,1.007,0.159,2.016,0.254,3.021c0.35,3.672,0.703,7.342,1.059,11.013
		c0.408,4.195,0.815,8.392,1.229,12.585c0.291,2.958,0.593,5.914,0.89,8.871c-2.035,2.019-4.327,3.711-6.75,5.227
		c-1.046,0.654-2.099,1.306-3.236,1.799c-0.092-0.879-0.189-1.76-0.274-2.641c-0.359-3.671-0.712-7.343-1.07-11.014
		c-0.401-4.134-0.804-8.267-1.206-12.399c-0.365-3.734-0.735-7.467-1.094-11.202C60.541,45.592,60.223,42.129,59.897,38.666z"/>
	<path fill-rule="evenodd" clip-rule="evenodd" fill="#FDDA4B" d="M40.868,91.56c-0.597-6.148-1.196-12.297-1.79-18.445
		c-0.482-4.995-0.953-9.991-1.438-14.985c-0.483-4.973-0.975-9.945-1.464-14.917c-0.173-1.763-0.35-3.525-0.525-5.286
		c1.966-0.446,3.968-0.653,5.966-0.897c0.375-0.045,0.751-0.079,1.127-0.118c0.218,2.351,0.428,4.702,0.654,7.052
		c0.36,3.736,0.731,7.47,1.097,11.206c0.405,4.155,0.812,8.311,1.215,12.465c0.362,3.735,0.714,7.472,1.077,11.207
		c0.397,4.114,0.8,8.227,1.2,12.34C45.62,91.412,43.249,91.576,40.868,91.56z"/>
	<path fill-rule="evenodd" clip-rule="evenodd" fill="#FDDA4B" d="M59.897,38.666c0.325,3.463,0.644,6.926,0.976,10.387
		c0.358,3.735,0.729,7.467,1.094,11.202c0.402,4.133,0.805,8.266,1.206,12.399c0.358,3.671,0.711,7.343,1.07,11.014
		c0.085,0.881,0.183,1.762,0.274,2.641c-1.952,1.041-3.98,1.901-6.084,2.588c-0.5-5.118-1.004-10.234-1.5-15.353
		c-0.443-4.572-0.872-9.146-1.317-13.718c-0.482-4.972-0.978-9.94-1.464-14.911c-0.247-2.538-0.484-5.077-0.727-7.615
		c0.159-0.016,0.318-0.03,0.477-0.044C55.925,37.624,57.944,37.999,59.897,38.666z"/>
	<path fill-rule="evenodd" clip-rule="evenodd" fill="#CCCCCC" d="M47.616,36.725c-1.633,0.061-3.265,0.121-4.899,0.181
		c-0.739-1.697-1.498-3.385-2.213-5.091c-1.502-3.576-2.882-7.197-3.652-11.014c-0.543-2.683-0.786-5.383-0.078-8.08
		c0.321-1.224,0.893-2.315,1.835-3.19c1.274-1.181,2.739-1.422,4.318-0.692c1.464,0.677,2.446,1.844,3.191,3.225
		c1.219,2.262,1.762,4.726,2.04,7.252c0.516,4.699,0.232,9.389-0.223,14.074C47.827,34.502,47.722,35.614,47.616,36.725z"/>
	<path fill-rule="evenodd" clip-rule="evenodd" fill="#CCCCCC" d="M53.902,37.256c-0.158,0.014-0.317,0.029-0.477,0.044
		c-0.814-0.326-1.687-0.292-2.534-0.385c-0.961-0.105-1.932-0.132-2.898-0.194c0.896-3.354,1.785-6.71,2.941-9.987
		c1.236-3.504,2.612-6.941,4.837-9.964c0.84-1.143,1.788-2.187,2.948-3.019c0.899-0.646,1.872-1.128,2.982-1.301
		c2.486-0.388,4.293,0.857,4.812,3.338c0.389,1.857,0.058,3.644-0.576,5.393c-1.218,3.36-3.262,6.215-5.501,8.947
		c-1.846,2.252-3.83,4.379-5.887,6.439C54.328,36.791,54.118,37.026,53.902,37.256z"/>
	<path fill-rule="evenodd" clip-rule="evenodd" fill="#FCDA4C" d="M74.504,79.283c-0.297-2.957-0.599-5.913-0.89-8.871
		c-0.413-4.193-0.82-8.39-1.229-12.585c-0.355-3.671-0.709-7.341-1.059-11.013c-0.095-1.006-0.169-2.014-0.254-3.021
		c2.305,1.444,4.418,3.127,6.331,5.063c-0.023,1.33,0.199,2.64,0.321,3.956c0.387,4.128,0.796,8.254,1.203,12.381
		c0.262,2.66,0.535,5.319,0.803,7.979C78.242,75.425,76.497,77.459,74.504,79.283z"/>
	<path fill-rule="evenodd" clip-rule="evenodd" fill="#020202" d="M79.731,73.172c-0.268-2.659-0.541-5.318-0.803-7.979
		c-0.407-4.127-0.816-8.253-1.203-12.381c-0.122-1.316-0.345-2.626-0.321-3.956c2.3,2.272,4.206,4.822,5.444,7.832
		c0.134,0.324,0.298,0.465,0.654,0.525c3.576,0.595,7.146,1.214,10.717,1.826c0.248,0.043,0.492,0.097,0.939,0.186
		c-1.299,0.498-2.423,0.932-3.548,1.363c-2.479,0.946-4.951,1.903-7.438,2.826c-0.383,0.142-0.5,0.352-0.566,0.718
		C83.012,67.442,81.619,70.414,79.731,73.172z M83.834,60.075c-0.021,0-0.043,0-0.065,0c0,1.008,0,2.015,0,3.021
		c0.022,0,0.044,0,0.065,0C83.834,62.09,83.834,61.083,83.834,60.075z"/>
	<path fill-rule="evenodd" clip-rule="evenodd" fill="#020201" d="M11.567,60.423c-0.01-1.58,1.264-2.839,2.862-2.829
		c1.534,0.011,2.764,1.285,2.764,2.864c0.001,1.559-1.242,2.781-2.828,2.783C12.808,63.244,11.578,62.004,11.567,60.423z"/>
	<path fill-rule="evenodd" clip-rule="evenodd" fill="#020202" d="M83.957,59.965c0,1.11,0,2.221,0,3.331
		c-0.144-0.001-0.285-0.001-0.428-0.001c0-1.109,0-2.221,0-3.332C83.672,59.963,83.813,59.965,83.957,59.965z"/>
</g>
</svg>
