<?xml version="1.0" encoding="utf-8"?>
<!-- Generator: Adobe Illustrator 16.0.0, SVG Export Plug-In . SVG Version: 6.00 Build 0)  -->
<!DOCTYPE svg PUBLIC "-//W3C//DTD SVG 1.1//EN" "http://www.w3.org/Graphics/SVG/1.1/DTD/svg11.dtd">
<svg version="1.1" id="Capa_1" xmlns="http://www.w3.org/2000/svg" xmlns:xlink="http://www.w3.org/1999/xlink" x="0px" y="0px"
	 width="100px" height="100px" viewBox="0 0 100 100" enable-background="new 0 0 100 100" xml:space="preserve">
<g>
	
		<linearGradient id="SVGID_1_" gradientUnits="userSpaceOnUse" x1="0.0698" y1="49.998" x2="99.9316" y2="49.998" gradientTransform="matrix(-1 0 0 -1 100.002 99.998)">
		<stop  offset="0" style="stop-color:#71C4C3"/>
		<stop  offset="0.1226" style="stop-color:#6CBFC3"/>
		<stop  offset="0.3216" style="stop-color:#5FB0C3"/>
		<stop  offset="0.5721" style="stop-color:#4D97BF"/>
		<stop  offset="0.8615" style="stop-color:#3B74B4"/>
		<stop  offset="1" style="stop-color:#3562AC"/>
	</linearGradient>
	<path fill-rule="evenodd" clip-rule="evenodd" fill="url(#SVGID_1_)" d="M50.018,0.06C78.021,0.162,100.7,23.066,99.912,51.477
		C99.163,78.425,77,100.024,49.813,99.939C22.494,99.855-0.022,77.637,0.07,49.849C0.162,22.468,22.24,0.172,50.018,0.06z
		 M78.911,42.958c-1.705-1.726-3.591-3.226-5.645-4.518c-1.755-1.189-3.63-2.152-5.574-2.992c-1.438-0.622-2.886-1.224-4.418-1.586
		c-1.739-0.598-3.543-0.92-5.345-1.262c2.192-2.25,4.378-4.506,6.335-6.969c1.687-2.122,3.214-4.342,4.225-6.874
		c0.677-1.692,1.079-3.438,0.708-5.274c-0.355-1.772-1.459-2.855-3.196-3.062c-1.035-0.124-2.006,0.194-2.91,0.687
		c-1.592,0.868-2.762,2.184-3.778,3.646c-2.001,2.876-3.219,6.118-4.336,9.404c-0.889,2.623-1.58,5.302-2.304,7.974
		c-0.098-0.003-0.193-0.005-0.289-0.008c-0.063-0.319-0.02-0.635,0.019-0.95c0.25-1.996,0.415-3.999,0.525-6.006
		c0.131-2.367,0.187-4.735,0.015-7.106c-0.174-2.389-0.538-4.732-1.482-6.947c-0.681-1.597-1.591-3.028-3.241-3.816
		c-1.505-0.719-2.828-0.491-4.014,0.665c-0.792,0.772-1.278,1.714-1.547,2.766c-0.652,2.559-0.392,5.109,0.167,7.639
		c0.849,3.818,2.305,7.428,3.859,11.001c0.425,0.975,0.938,1.911,1.272,2.924h0.016c-0.649,0.073-1.3,0.136-1.947,0.222
		c-1.459,0.196-2.925,0.353-4.362,0.689c-0.968,0.099-1.91,0.336-2.854,0.556c-2.181,0.507-4.343,1.076-6.429,1.904
		c-3.095,1.079-6.01,2.518-8.694,4.403c-3.58,2.514-6.416,5.652-8.078,9.757c-1.561,3.853-1.764,7.835-1.097,11.891
		c0.75,4.554,2.837,8.396,6.259,11.485c4.541,4.095,10.042,6.068,15.958,7.094c0.838,0.222,1.699,0.299,2.556,0.395
		c2.334,0.267,4.676,0.452,7.03,0.381c2.125,0.008,4.239-0.146,6.352-0.338c1.327-0.078,2.638-0.274,3.936-0.545
		c1.825-0.378,3.645-0.797,5.384-1.491c1.869-0.624,3.677-1.394,5.423-2.309c1.253-0.561,2.41-1.282,3.554-2.03
		c1.917-1.251,3.745-2.618,5.364-4.247c1.781-1.623,3.319-3.456,4.67-5.447c1.682-2.479,2.946-5.139,3.459-8.117
		c0.052-0.294,0.17-0.444,0.458-0.552c2.245-0.84,4.487-1.699,6.729-2.556c1.016-0.388,2.028-0.781,3.193-1.23
		c-0.371-0.081-0.57-0.134-0.771-0.168c-3.203-0.547-6.406-1.098-9.61-1.631c-0.376-0.062-0.572-0.213-0.723-0.57
		C82.62,47.201,80.951,44.947,78.911,42.958z"/>
	<path fill-rule="evenodd" clip-rule="evenodd" fill="#FDDC3C" d="M36.729,80.293c-5.917-1.025-11.418-2.999-15.958-7.094
		c-3.422-3.089-5.51-6.932-6.259-11.485c-0.667-4.056-0.464-8.038,1.097-11.891c1.662-4.105,4.498-7.244,8.078-9.757
		c2.684-1.885,5.6-3.324,8.694-4.403c0.159,1.609,0.317,3.219,0.476,4.828c0.325,3.292,0.653,6.585,0.974,9.878
		c0.319,3.293,0.626,6.589,0.947,9.882c0.32,3.293,0.652,6.586,0.974,9.879C36.081,73.517,36.403,76.903,36.729,80.293z
		 M20.162,53.261c-0.002,1.413,1.088,2.527,2.475,2.532c1.425,0.005,2.526-1.064,2.54-2.465c0.013-1.437-1.096-2.574-2.5-2.565
		C21.266,50.773,20.164,51.867,20.162,53.261z"/>
	<path fill-rule="evenodd" clip-rule="evenodd" fill="#020303" d="M61.987,78.694c-1.739,0.694-3.559,1.113-5.384,1.491
		c-1.298,0.271-2.608,0.467-3.936,0.545c-0.189-1.982-0.38-3.966-0.572-5.948c-0.284-2.939-0.574-5.876-0.861-8.813
		c-0.277-2.883-0.555-5.764-0.836-8.645c-0.283-2.92-0.57-5.838-0.855-8.755c-0.287-2.938-0.576-5.875-0.86-8.813
		c-0.239-2.488-0.474-4.977-0.71-7.465h-0.016c1.476-0.057,2.952-0.114,4.427-0.169c0.096,0.003,0.191,0.005,0.289,0.008
		c0.843,0.052,1.688,0.078,2.527,0.165c0.775,0.08,1.569,0.063,2.314,0.345c0.09,0.917,0.185,1.835,0.271,2.752
		c0.316,3.295,0.625,6.591,0.946,9.886c0.356,3.669,0.729,7.336,1.082,11.006c0.36,3.688,0.702,7.377,1.062,11.064
		C61.239,71.132,61.615,74.912,61.987,78.694z"/>
	<path fill-rule="evenodd" clip-rule="evenodd" fill="#020303" d="M36.729,80.293c-0.327-3.39-0.649-6.776-0.979-10.163
		c-0.321-3.293-0.654-6.586-0.974-9.879c-0.32-3.293-0.627-6.589-0.947-9.882c-0.32-3.293-0.649-6.586-0.974-9.878
		c-0.159-1.609-0.317-3.218-0.476-4.828c2.085-0.828,4.248-1.397,6.429-1.904c0.944-0.219,1.886-0.457,2.854-0.556
		c0.328,3.311,0.659,6.62,0.979,9.932c0.393,4.059,0.771,8.119,1.167,12.177c0.433,4.453,0.881,8.902,1.314,13.354
		c0.403,4.135,0.795,8.269,1.192,12.402c-2.354,0.071-4.696-0.114-7.03-0.381C38.429,80.592,37.567,80.515,36.729,80.293z"/>
	<path fill-rule="evenodd" clip-rule="evenodd" fill="#020303" d="M76.328,70.108c-1.619,1.629-3.447,2.996-5.364,4.247
		c-1.144,0.748-2.301,1.47-3.554,2.03c-0.113-1.102-0.235-2.204-0.341-3.306c-0.394-4.078-0.773-8.157-1.17-12.233
		c-0.434-4.45-0.883-8.899-1.316-13.349c-0.44-4.544-0.871-9.091-1.309-13.635c1.532,0.362,2.98,0.964,4.418,1.586
		c1.944,0.84,3.819,1.803,5.574,2.992c0.016,0.319,0.017,0.639,0.047,0.957c0.211,2.19,0.426,4.379,0.639,6.569
		c0.277,2.864,0.557,5.726,0.836,8.59c0.284,2.92,0.568,5.841,0.855,8.759C75.868,65.581,76.1,67.843,76.328,70.108z"/>
	<path fill-rule="evenodd" clip-rule="evenodd" fill="#FDDB3C" d="M46.316,81.068c-0.397-4.134-0.789-8.268-1.192-12.402
		c-0.433-4.452-0.881-8.901-1.314-13.354c-0.395-4.058-0.774-8.118-1.167-12.177c-0.32-3.312-0.652-6.621-0.979-9.932
		c1.438-0.336,2.903-0.493,4.362-0.689c0.647-0.086,1.298-0.149,1.947-0.222c0.237,2.488,0.471,4.978,0.71,7.465
		c0.285,2.938,0.573,5.875,0.86,8.813c0.285,2.917,0.572,5.835,0.855,8.755c0.281,2.881,0.559,5.762,0.836,8.645
		c0.287,2.937,0.577,5.873,0.861,8.813c0.192,1.982,0.383,3.966,0.572,5.948C50.555,80.922,48.44,81.076,46.316,81.068z"/>
	<path fill-rule="evenodd" clip-rule="evenodd" fill="#FDDB3C" d="M63.274,33.863c0.438,4.544,0.868,9.09,1.309,13.635
		c0.434,4.45,0.883,8.899,1.316,13.349c0.396,4.076,0.776,8.155,1.17,12.233c0.105,1.102,0.228,2.204,0.341,3.306
		c-1.746,0.915-3.554,1.685-5.423,2.309c-0.372-3.782-0.748-7.563-1.112-11.345c-0.359-3.688-0.701-7.376-1.062-11.064
		c-0.354-3.67-0.726-7.337-1.082-11.006c-0.321-3.295-0.63-6.591-0.946-9.886c-0.086-0.917-0.181-1.835-0.271-2.752
		c0.139-0.014,0.278-0.027,0.415-0.041C59.731,32.942,61.535,33.265,63.274,33.863z"/>
	<path fill-rule="evenodd" clip-rule="evenodd" fill="#FEFFFF" d="M52.384,32.123c-1.475,0.055-2.951,0.112-4.427,0.169
		c-0.334-1.013-0.848-1.949-1.272-2.924c-1.554-3.574-3.01-7.183-3.859-11.001c-0.56-2.529-0.819-5.08-0.167-7.639
		c0.269-1.052,0.755-1.993,1.547-2.766c1.187-1.156,2.509-1.384,4.014-0.665c1.649,0.788,2.56,2.219,3.241,3.816
		c0.944,2.215,1.309,4.559,1.482,6.947c0.172,2.372,0.116,4.739-0.015,7.106c-0.11,2.008-0.275,4.011-0.525,6.006
		C52.364,31.488,52.321,31.804,52.384,32.123z"/>
	<path fill-rule="evenodd" clip-rule="evenodd" fill="#FEFFFF" d="M57.93,32.601c-0.137,0.014-0.276,0.027-0.415,0.041
		c-0.745-0.282-1.539-0.265-2.314-0.345c-0.84-0.086-1.685-0.112-2.527-0.165c0.724-2.671,1.415-5.351,2.304-7.974
		c1.117-3.286,2.335-6.528,4.336-9.404c1.017-1.462,2.187-2.778,3.778-3.646c0.904-0.493,1.875-0.81,2.91-0.687
		c1.737,0.207,2.841,1.29,3.196,3.062c0.371,1.836-0.031,3.582-0.708,5.274c-1.011,2.532-2.538,4.752-4.225,6.874
		C62.308,28.095,60.122,30.351,57.93,32.601z"/>
	<path fill-rule="evenodd" clip-rule="evenodd" fill="#FDDB3C" d="M76.328,70.108c-0.229-2.266-0.46-4.527-0.685-6.793
		c-0.287-2.918-0.571-5.839-0.855-8.759c-0.279-2.864-0.559-5.726-0.836-8.59c-0.213-2.19-0.428-4.379-0.639-6.569
		c-0.03-0.318-0.031-0.638-0.047-0.957c2.054,1.292,3.939,2.792,5.645,4.518c0.065,1.954,0.34,3.89,0.516,5.833
		c0.268,2.918,0.562,5.834,0.849,8.751c0.236,2.375,0.481,4.746,0.723,7.118C79.647,66.652,78.109,68.485,76.328,70.108z"/>
	<path fill-rule="evenodd" clip-rule="evenodd" fill="#020304" d="M80.998,64.661c-0.241-2.372-0.486-4.743-0.723-7.118
		c-0.287-2.917-0.581-5.833-0.849-8.751c-0.176-1.943-0.45-3.879-0.516-5.833c2.04,1.989,3.709,4.242,4.821,6.878
		c0.15,0.357,0.347,0.509,0.723,0.57c3.204,0.534,6.407,1.084,9.61,1.631c0.201,0.034,0.4,0.087,0.771,0.168
		c-1.165,0.449-2.178,0.843-3.193,1.23c-2.241,0.856-4.483,1.716-6.729,2.556c-0.288,0.107-0.406,0.258-0.458,0.552
		C83.944,59.522,82.68,62.182,80.998,64.661z M84.665,53.114c-0.018-0.01-0.038-0.018-0.055-0.025c0,0.813,0,1.624,0,2.438
		c0.017-0.002,0.037-0.002,0.055-0.002C84.665,54.721,84.665,53.916,84.665,53.114z"/>
	<path fill-rule="evenodd" clip-rule="evenodd" fill="#020303" d="M20.162,53.261c0.001-1.394,1.104-2.488,2.514-2.498
		c1.404-0.009,2.514,1.128,2.5,2.565c-0.013,1.4-1.115,2.47-2.54,2.465C21.25,55.788,20.16,54.674,20.162,53.261z"/>
	<path fill-rule="evenodd" clip-rule="evenodd" fill="#020304" d="M84.665,53.114c0,0.802,0,1.606,0,2.41
		c-0.018,0-0.038,0-0.055,0.002c0-0.813,0-1.625,0-2.438C84.627,53.097,84.647,53.104,84.665,53.114z"/>
</g>
<linearGradient id="SVGID_2_" gradientUnits="userSpaceOnUse" x1="102.6104" y1="-83" x2="102.6104" y2="-56">
	<stop  offset="0" style="stop-color:#FBBB10"/>
	<stop  offset="0.1739" style="stop-color:#F5A24A"/>
	<stop  offset="0.5652" style="stop-color:#E95677"/>
	<stop  offset="0.6275" style="stop-color:#E74578"/>
	<stop  offset="1" style="stop-color:#E7225E"/>
</linearGradient>
<rect x="84.61" y="-83" fill="url(#SVGID_2_)" width="36" height="27"/>
<linearGradient id="SVGID_3_" gradientUnits="userSpaceOnUse" x1="41.6636" y1="-88" x2="41.6636" y2="-48">
	<stop  offset="0" style="stop-color:#564999"/>
	<stop  offset="0.25" style="stop-color:#754796"/>
	<stop  offset="1" style="stop-color:#E71A78"/>
</linearGradient>
<rect x="7" y="-88" fill="url(#SVGID_3_)" width="69.328" height="40"/>
<linearGradient id="SVGID_4_" gradientUnits="userSpaceOnUse" x1="214.2324" y1="8.5132" x2="214.2324" y2="42.9585">
	<stop  offset="0" style="stop-color:#71C4C3"/>
	<stop  offset="0.1226" style="stop-color:#6CBFC3"/>
	<stop  offset="0.3216" style="stop-color:#5FB0C3"/>
	<stop  offset="0.5721" style="stop-color:#4D97BF"/>
	<stop  offset="0.8615" style="stop-color:#3B74B4"/>
	<stop  offset="1" style="stop-color:#3562AC"/>
</linearGradient>
<rect x="180.073" y="8.513" fill="url(#SVGID_4_)" width="68.317" height="34.445"/>
</svg>
